<svg xmlns="http://www.w3.org/2000/svg" xmlns:xlink="http://www.w3.org/1999/xlink" width="840" zoomAndPan="magnify" viewBox="0 0 630 200.249992" height="267" preserveAspectRatio="xMidYMid meet" version="1.0"><path fill="#000000" d="M 178.621094 5.90625 C 175.59375 7.222656 172.179688 11.101562 168.144531 17.847656 C 163.410156 25.914062 160.304688 33.828125 151.382812 60.195312 C 146.957031 73.304688 142.921875 84.628906 142.378906 85.328125 C 141.835938 85.945312 139.894531 87.1875 138.109375 87.964844 C 134.230469 89.667969 133.996094 90.679688 136.714844 93.859375 C 137.800781 95.175781 138.652344 96.804688 138.652344 97.582031 C 138.652344 98.277344 133.453125 114.722656 127.011719 134.035156 C 120.648438 153.347656 115.371094 170.023438 115.371094 171.03125 C 115.371094 173.433594 116.769531 174.597656 120.261719 175.21875 C 123.519531 175.683594 126.78125 174.132812 129.730469 170.71875 C 133.066406 166.6875 153.785156 124.492188 157.746094 113.636719 C 163.875 96.574219 163.566406 97.117188 170.78125 92.152344 C 177.921875 87.34375 184.054688 82.144531 185.21875 80.050781 C 185.761719 79.042969 185.375 77.648438 183.820312 74.621094 C 181.183594 69.503906 180.171875 68.960938 175.671875 70.355469 C 173.65625 70.976562 172.023438 71.132812 172.023438 70.824219 C 172.023438 68.574219 183.046875 38.480469 185.996094 32.664062 C 189.488281 25.914062 194.144531 22.582031 196.703125 25.140625 C 198.023438 26.457031 199.964844 24.519531 199.964844 21.726562 C 199.964844 18.160156 198.023438 14.515625 194.144531 10.636719 C 188.632812 5.128906 183.820312 3.65625 178.621094 5.90625 Z M 178.621094 5.90625 " fill-opacity="1" fill-rule="nonzero"/><path fill="#000000" d="M 235.507812 58.101562 C 234.808594 58.878906 233.492188 61.050781 232.558594 62.988281 C 229.84375 68.417969 229.84375 68.417969 225.886719 67.175781 C 217.890625 64.773438 208.578125 69.117188 197.167969 80.441406 C 179.785156 97.660156 165.660156 121.390625 165.582031 133.179688 C 165.582031 141.710938 172.179688 147.53125 181.804688 147.53125 C 190.339844 147.53125 198.410156 142.410156 208.964844 130.3125 C 211.449219 127.441406 213.621094 125.191406 213.699219 125.347656 C 213.777344 125.425781 213.15625 127.984375 212.304688 131.085938 C 210.597656 137.136719 210.90625 138.765625 214.164062 140.9375 C 218.667969 143.882812 229.453125 144.039062 232.480469 141.246094 C 234.109375 139.695312 236.128906 133.570312 242.261719 112.238281 C 249.554688 86.800781 252.269531 67.175781 249.246094 61.515625 C 247.070312 57.328125 238.148438 55.15625 235.507812 58.101562 Z M 224.796875 84.316406 C 226.816406 86.722656 216.183594 104.949219 204.078125 119.996094 C 200.585938 124.261719 197.015625 128.527344 196.003906 129.457031 C 190.652344 134.421875 186.226562 134.1875 187.160156 129.070312 C 188.710938 120.074219 204.15625 96.496094 214.011719 87.964844 C 219.289062 83.386719 223.011719 82.144531 224.796875 84.316406 Z M 224.796875 84.316406 " fill-opacity="1" fill-rule="nonzero"/><path fill="#000000" d="M 285.332031 59.652344 C 277.027344 60.507812 262.4375 64.929688 257.703125 68.03125 C 255.453125 69.503906 255.375 70.667969 257.394531 74.699219 C 258.402344 76.640625 260.03125 78.269531 261.738281 79.121094 C 264.457031 80.363281 264.765625 80.363281 274.3125 77.878906 C 279.746094 76.484375 286.109375 75.011719 288.4375 74.699219 C 292.550781 74.082031 292.628906 74.082031 290.765625 75.320312 C 274.699219 85.792969 248.933594 111.617188 247.613281 118.523438 C 246.992188 121.855469 249.324219 126.742188 253.4375 130.777344 C 255.996094 133.257812 257.160156 133.878906 260.421875 134.1875 C 264.066406 134.5 265.230469 134.113281 278.113281 127.90625 C 295.109375 119.761719 301.398438 117.746094 309.777344 117.667969 C 313.195312 117.667969 317.152344 117.980469 318.625 118.367188 L 321.265625 119.066406 L 320.800781 115.496094 C 320.101562 110.535156 317.695312 106.191406 314.28125 103.554688 C 311.484375 101.382812 311.332031 101.382812 300.933594 101.457031 C 293.171875 101.613281 288.746094 102 284.167969 103.164062 C 280.753906 104.019531 277.882812 104.640625 277.726562 104.484375 C 277.570312 104.40625 280.367188 102.3125 283.933594 99.984375 C 295.65625 92.308594 306.363281 87.652344 318.546875 85.09375 C 328.015625 83.078125 328.949219 81.449219 325.144531 73.847656 C 322.273438 68.109375 316.761719 62.601562 312.882812 61.515625 C 305.589844 59.652344 293.480469 58.800781 285.332031 59.652344 Z M 285.332031 59.652344 " fill-opacity="1" fill-rule="nonzero"/><path fill="#000000" d="M 340.433594 177.699219 C 340.433594 186.308594 340.589844 187.859375 341.597656 187.859375 C 342.605469 187.859375 342.761719 186.464844 342.605469 178.011719 C 342.453125 171.03125 342.0625 168.082031 341.441406 167.851562 C 340.667969 167.617188 340.433594 169.945312 340.433594 177.699219 Z M 340.433594 177.699219 " fill-opacity="1" fill-rule="nonzero"/><path fill="#000000" d="M 161.78125 169.089844 L 159.609375 169.324219 L 159.609375 187.859375 L 163.410156 187.859375 C 166.050781 187.859375 167.757812 187.394531 169.230469 186.230469 C 171.792969 184.214844 171.949219 180.726562 169.542969 179.019531 C 167.988281 177.855469 167.910156 177.777344 169.152344 176.382812 C 172.800781 172.347656 168.609375 168.316406 161.78125 169.089844 Z M 167.214844 171.726562 C 169.464844 173.976562 167.367188 177.003906 163.566406 177.003906 C 162.167969 177.003906 161.9375 176.535156 161.9375 173.898438 C 161.9375 171.03125 162.089844 170.796875 164.109375 170.796875 C 165.273438 170.796875 166.671875 171.183594 167.214844 171.726562 Z M 168.300781 181.34375 C 169.152344 183.128906 169.074219 183.59375 167.445312 184.835938 C 166.4375 185.6875 164.808594 186.308594 163.796875 186.308594 C 162.089844 186.308594 161.9375 186 161.9375 182.820312 C 161.9375 179.328125 161.9375 179.328125 164.652344 179.328125 C 166.824219 179.328125 167.601562 179.714844 168.300781 181.34375 Z M 168.300781 181.34375 " fill-opacity="1" fill-rule="nonzero"/><path fill="#000000" d="M 356.1875 169.246094 C 354.171875 170.097656 353.160156 173.277344 354.171875 175.605469 C 354.714844 176.847656 354.480469 177.621094 353.085938 179.019531 C 348.351562 183.828125 353.472656 189.800781 360.300781 187.394531 C 362.164062 186.773438 363.40625 186.621094 363.5625 187.085938 C 363.714844 187.550781 364.570312 187.859375 365.425781 187.859375 C 366.976562 187.859375 366.976562 187.78125 365.734375 186.464844 C 364.570312 185.144531 364.570312 184.757812 365.65625 182.199219 C 367.132812 178.707031 367.132812 177.777344 365.734375 177.777344 C 365.113281 177.777344 364.414062 178.785156 364.105469 180.105469 C 363.484375 182.972656 363.171875 182.972656 360.457031 180.335938 L 358.285156 178.242188 L 360.300781 176.613281 C 362.398438 174.984375 363.09375 171.417969 361.699219 170.023438 C 360.457031 168.9375 357.972656 168.546875 356.1875 169.246094 Z M 360.070312 171.960938 C 360.691406 173.433594 358.050781 176.613281 356.886719 175.917969 C 355.878906 175.296875 355.644531 172.191406 356.5 171.339844 C 357.429688 170.410156 359.679688 170.796875 360.070312 171.960938 Z M 358.90625 181.886719 C 361.621094 184.679688 361.15625 186.308594 357.816406 186.308594 C 354.480469 186.308594 352.386719 182.429688 354.558594 180.257812 C 355.878906 178.941406 356.109375 179.019531 358.90625 181.886719 Z M 358.90625 181.886719 " fill-opacity="1" fill-rule="nonzero"/><path fill="#000000" d="M 214.242188 170.097656 C 213.621094 171.183594 215.097656 172.660156 216.183594 172.039062 C 216.648438 171.726562 217.039062 170.953125 217.039062 170.332031 C 217.039062 169.089844 215.019531 168.859375 214.242188 170.097656 Z M 214.242188 170.097656 " fill-opacity="1" fill-rule="nonzero"/><path fill="#000000" d="M 272.914062 178.554688 C 272.914062 186.308594 273.148438 187.859375 274.078125 187.859375 C 275.011719 187.859375 275.242188 186.851562 275.242188 183.59375 L 275.242188 179.328125 L 284.554688 179.328125 L 284.554688 183.59375 C 284.554688 186.851562 284.789062 187.859375 285.71875 187.859375 C 286.730469 187.859375 286.882812 186.308594 286.882812 178.554688 C 286.882812 170.796875 286.730469 169.246094 285.71875 169.246094 C 284.867188 169.246094 284.554688 170.175781 284.554688 173.125 L 284.554688 177.003906 L 275.242188 177.003906 L 275.242188 173.125 C 275.242188 170.175781 274.933594 169.246094 274.078125 169.246094 C 273.148438 169.246094 272.914062 170.796875 272.914062 178.554688 Z M 272.914062 178.554688 " fill-opacity="1" fill-rule="nonzero"/><path fill="#000000" d="M 376.988281 178.242188 C 375.203125 183.207031 373.960938 187.472656 374.117188 187.707031 C 375.046875 188.558594 376.832031 187.007812 377.296875 184.835938 C 377.761719 182.585938 377.996094 182.429688 381.566406 182.429688 C 385.136719 182.429688 385.367188 182.585938 385.835938 184.835938 C 386.300781 186.929688 388.085938 188.558594 388.9375 187.707031 C 389.171875 187.550781 388.007812 183.363281 386.378906 178.476562 C 383.972656 171.417969 383.039062 169.554688 381.800781 169.402344 C 380.480469 169.167969 379.78125 170.410156 376.988281 178.242188 Z M 382.34375 174.289062 C 382.730469 175.375 383.351562 177.15625 383.585938 178.164062 C 384.050781 179.949219 383.816406 180.105469 381.332031 180.105469 L 378.617188 180.105469 L 379.859375 176.226562 C 380.636719 174.132812 381.253906 172.347656 381.410156 172.347656 C 381.488281 172.347656 381.953125 173.203125 382.34375 174.289062 Z M 382.34375 174.289062 " fill-opacity="1" fill-rule="nonzero"/><path fill="#000000" d="M 206.40625 172.347656 C 206.171875 173.203125 205.707031 173.898438 205.320312 173.898438 C 204.929688 173.898438 204.621094 174.441406 204.621094 175.0625 C 204.621094 175.683594 205.007812 176.226562 205.394531 176.226562 C 205.863281 176.226562 206.171875 178.164062 206.171875 180.570312 C 206.171875 186.078125 207.105469 187.859375 210.054688 187.859375 C 212.691406 187.859375 213.15625 186.695312 210.828125 186.078125 C 209.507812 185.765625 209.277344 184.992188 209.277344 180.957031 C 209.277344 176.769531 209.433594 176.226562 210.828125 176.226562 C 211.683594 176.226562 212.382812 175.683594 212.382812 175.0625 C 212.382812 174.441406 211.683594 173.898438 210.828125 173.898438 C 209.820312 173.898438 209.277344 173.355469 209.277344 172.347656 C 209.277344 171.417969 208.734375 170.796875 208.035156 170.796875 C 207.335938 170.796875 206.636719 171.496094 206.40625 172.347656 Z M 206.40625 172.347656 " fill-opacity="1" fill-rule="nonzero"/><path fill="#000000" d="M 317.382812 172.347656 C 317.152344 173.203125 316.6875 173.898438 316.296875 173.898438 C 315.910156 173.898438 315.597656 174.441406 315.597656 175.0625 C 315.597656 175.683594 315.988281 176.226562 316.375 176.226562 C 316.839844 176.226562 317.152344 178.164062 317.152344 180.570312 C 317.152344 186.078125 318.082031 187.859375 321.03125 187.859375 C 323.671875 187.859375 324.136719 186.695312 321.808594 186.078125 C 320.488281 185.765625 320.257812 184.992188 320.257812 180.957031 C 320.257812 176.769531 320.410156 176.226562 321.808594 176.226562 C 322.660156 176.226562 323.359375 175.683594 323.359375 175.0625 C 323.359375 174.441406 322.660156 173.898438 321.808594 173.898438 C 320.800781 173.898438 320.257812 173.355469 320.257812 172.347656 C 320.257812 171.417969 319.710938 170.796875 319.015625 170.796875 C 318.316406 170.796875 317.617188 171.496094 317.382812 172.347656 Z M 317.382812 172.347656 " fill-opacity="1" fill-rule="nonzero"/><path fill="#000000" d="M 432.246094 172.347656 C 432.011719 173.203125 431.546875 173.898438 431.15625 173.898438 C 430.769531 173.898438 430.460938 174.441406 430.460938 175.0625 C 430.460938 175.683594 430.847656 176.226562 431.234375 176.226562 C 431.699219 176.226562 432.011719 178.164062 432.011719 180.570312 C 432.011719 186.078125 432.941406 187.859375 435.890625 187.859375 C 438.53125 187.859375 438.996094 186.695312 436.667969 186.078125 C 435.347656 185.765625 435.117188 184.992188 435.117188 180.957031 C 435.117188 176.769531 435.269531 176.226562 436.667969 176.226562 C 437.523438 176.226562 438.21875 175.683594 438.21875 175.0625 C 438.21875 174.441406 437.523438 173.898438 436.667969 173.898438 C 435.660156 173.898438 435.117188 173.355469 435.117188 172.347656 C 435.117188 171.417969 434.574219 170.796875 433.875 170.796875 C 433.175781 170.796875 432.476562 171.496094 432.246094 172.347656 Z M 432.246094 172.347656 " fill-opacity="1" fill-rule="nonzero"/><path fill="#000000" d="M 494.332031 172.347656 C 494.097656 173.203125 493.632812 173.898438 493.242188 173.898438 C 492.855469 173.898438 492.546875 174.441406 492.546875 175.0625 C 492.546875 175.683594 492.933594 176.226562 493.320312 176.226562 C 493.789062 176.226562 494.097656 178.164062 494.097656 180.570312 C 494.097656 186.078125 495.027344 187.859375 497.976562 187.859375 C 500.617188 187.859375 501.082031 186.695312 498.753906 186.078125 C 497.433594 185.765625 497.203125 184.992188 497.203125 180.957031 C 497.203125 176.769531 497.355469 176.226562 498.753906 176.226562 C 499.609375 176.226562 500.304688 175.683594 500.304688 175.0625 C 500.304688 174.441406 499.609375 173.898438 498.753906 173.898438 C 497.746094 173.898438 497.203125 173.355469 497.203125 172.347656 C 497.203125 171.417969 496.660156 170.796875 495.960938 170.796875 C 495.261719 170.796875 494.5625 171.496094 494.332031 172.347656 Z M 494.332031 172.347656 " fill-opacity="1" fill-rule="nonzero"/><path fill="#000000" d="M 177.457031 174.90625 C 174.429688 176.460938 173.1875 179.714844 174.277344 183.285156 C 175.285156 186.695312 176.992188 187.859375 180.792969 187.859375 C 185.527344 187.859375 188.398438 182.820312 186.382812 178.011719 C 184.832031 174.289062 181.183594 173.046875 177.457031 174.90625 Z M 183.667969 177.699219 C 186.382812 182.820312 181.648438 188.867188 177.921875 185.066406 C 176.449219 183.671875 176.292969 178.476562 177.613281 177.15625 C 179.085938 175.683594 182.734375 175.992188 183.667969 177.699219 Z M 183.667969 177.699219 " fill-opacity="1" fill-rule="nonzero"/><path fill="#000000" d="M 190.183594 175.0625 C 189.488281 176.925781 190.339844 185.378906 191.347656 186.621094 C 192.746094 188.25 194.996094 188.558594 197.167969 187.394531 C 198.257812 186.851562 199.1875 186.695312 199.1875 187.164062 C 199.1875 187.550781 199.730469 187.859375 200.351562 187.859375 C 201.28125 187.859375 201.515625 186.542969 201.515625 180.878906 C 201.515625 175.21875 201.28125 173.898438 200.351562 173.898438 C 199.421875 173.898438 199.1875 174.984375 199.1875 178.863281 C 199.1875 183.90625 198.101562 186.308594 195.773438 186.308594 C 193.910156 186.308594 193.054688 184.371094 192.824219 179.328125 C 192.589844 174.519531 191.195312 172.269531 190.183594 175.0625 Z M 190.183594 175.0625 " fill-opacity="1" fill-rule="nonzero"/><path fill="#000000" d="M 214.710938 180.800781 C 214.710938 186.621094 214.941406 187.859375 215.875 187.859375 C 216.882812 187.859375 217.039062 186.773438 216.882812 181.113281 C 216.726562 176.613281 216.339844 174.289062 215.71875 174.054688 C 214.941406 173.820312 214.710938 175.527344 214.710938 180.800781 Z M 214.710938 180.800781 " fill-opacity="1" fill-rule="nonzero"/><path fill="#000000" d="M 222.703125 175.761719 C 220.917969 177.3125 220.53125 178.242188 220.53125 181.113281 C 220.53125 186.078125 222.546875 188.171875 226.894531 187.628906 L 230.230469 187.238281 L 230.230469 190.265625 C 230.230469 192.824219 230.464844 193.289062 231.78125 193.289062 C 233.335938 193.289062 233.335938 192.902344 233.179688 183.828125 C 233.023438 177.15625 232.636719 174.289062 232.015625 174.054688 C 231.472656 173.898438 231.007812 174.363281 231.007812 175.0625 C 231.007812 176.226562 230.851562 176.226562 229.300781 175.140625 C 226.894531 173.433594 225.265625 173.589844 222.703125 175.761719 Z M 229.300781 177.15625 C 229.84375 177.699219 230.230469 179.5625 230.230469 181.421875 C 230.230469 184.601562 228.910156 186.308594 226.429688 186.308594 C 224.796875 186.308594 223.246094 183.75 223.246094 180.957031 C 223.246094 177.699219 224.332031 176.226562 226.738281 176.226562 C 227.667969 176.226562 228.757812 176.613281 229.300781 177.15625 Z M 229.300781 177.15625 " fill-opacity="1" fill-rule="nonzero"/><path fill="#000000" d="M 236.75 175.0625 C 236.050781 176.925781 236.90625 185.378906 237.914062 186.621094 C 239.3125 188.25 241.5625 188.558594 243.734375 187.394531 C 244.820312 186.851562 245.753906 186.695312 245.753906 187.164062 C 245.753906 187.550781 246.296875 187.859375 246.917969 187.859375 C 247.847656 187.859375 248.082031 186.542969 248.082031 180.878906 C 248.082031 175.21875 247.847656 173.898438 246.917969 173.898438 C 245.984375 173.898438 245.753906 174.984375 245.753906 178.863281 C 245.753906 183.90625 244.664062 186.308594 242.335938 186.308594 C 240.476562 186.308594 239.621094 184.371094 239.386719 179.328125 C 239.15625 174.519531 237.757812 172.269531 236.75 175.0625 Z M 236.75 175.0625 " fill-opacity="1" fill-rule="nonzero"/><path fill="#000000" d="M 254.054688 175.449219 C 250.175781 178.554688 251.03125 186.464844 255.375 187.550781 C 257.9375 188.171875 262.515625 187.628906 262.207031 186.695312 C 262.128906 186.308594 260.964844 186.078125 259.722656 186.152344 C 256.851562 186.464844 254.289062 185.066406 254.289062 183.207031 C 254.289062 181.8125 254.832031 181.65625 259.023438 181.65625 L 263.835938 181.65625 L 263.292969 179.097656 C 262.359375 174.289062 257.859375 172.503906 254.054688 175.449219 Z M 260.496094 177.777344 C 261.273438 179.25 261.117188 179.328125 257.78125 179.328125 C 254.210938 179.328125 253.589844 178.785156 255.21875 177.15625 C 256.695312 175.683594 259.566406 176.070312 260.496094 177.777344 Z M 260.496094 177.777344 " fill-opacity="1" fill-rule="nonzero"/><path fill="#000000" d="M 293.09375 174.90625 C 290.066406 176.460938 288.824219 179.714844 289.910156 183.285156 C 290.921875 186.695312 292.628906 187.859375 296.429688 187.859375 C 301.164062 187.859375 304.035156 182.820312 302.019531 178.011719 C 300.464844 174.289062 296.820312 173.046875 293.09375 174.90625 Z M 299.300781 177.699219 C 302.019531 182.820312 297.285156 188.867188 293.558594 185.066406 C 292.085938 183.671875 291.929688 178.476562 293.25 177.15625 C 294.722656 175.683594 298.371094 175.992188 299.300781 177.699219 Z M 299.300781 177.699219 " fill-opacity="1" fill-rule="nonzero"/><path fill="#000000" d="M 307.0625 175.296875 C 304.578125 177.3125 305.433594 180.183594 309.003906 181.886719 C 311.875 183.285156 312.105469 183.671875 311.019531 185.457031 C 310.554688 186.152344 309.546875 186.386719 307.917969 186.078125 C 306.132812 185.6875 305.511719 185.84375 305.511719 186.695312 C 305.511719 188.324219 311.253906 188.25 312.804688 186.621094 C 315.132812 184.292969 314.125 181.8125 309.855469 179.714844 C 307.375 178.476562 307.839844 176.691406 310.789062 176.382812 C 313.425781 176.148438 314.046875 175.140625 312.03125 174.363281 C 310.011719 173.589844 308.847656 173.820312 307.0625 175.296875 Z M 307.0625 175.296875 " fill-opacity="1" fill-rule="nonzero"/><path fill="#000000" d="M 327.785156 175.449219 C 323.902344 178.554688 324.757812 186.464844 329.101562 187.550781 C 331.664062 188.171875 336.242188 187.628906 335.933594 186.695312 C 335.855469 186.308594 334.691406 186.078125 333.449219 186.152344 C 330.578125 186.464844 328.015625 185.066406 328.015625 183.207031 C 328.015625 181.8125 328.558594 181.65625 332.75 181.65625 L 337.5625 181.65625 L 337.019531 179.097656 C 336.089844 174.289062 331.585938 172.503906 327.785156 175.449219 Z M 334.226562 177.777344 C 335 179.25 334.847656 179.328125 331.507812 179.328125 C 327.9375 179.328125 327.316406 178.785156 328.949219 177.15625 C 330.421875 175.683594 333.292969 176.070312 334.226562 177.777344 Z M 334.226562 177.777344 " fill-opacity="1" fill-rule="nonzero"/><path fill="#000000" d="M 392.277344 174.441406 C 392.121094 174.832031 392.121094 179.171875 392.277344 184.136719 C 392.507812 191.351562 392.820312 193.289062 393.671875 193.289062 C 394.449219 193.289062 394.757812 192.359375 394.757812 190.265625 L 394.757812 187.238281 L 398.097656 187.628906 C 401.125 188.015625 401.667969 187.78125 403.140625 185.921875 C 405.546875 182.898438 405.46875 178.320312 402.910156 175.839844 C 400.8125 173.667969 399.726562 173.511719 396.542969 174.753906 C 395.070312 175.296875 394.292969 175.296875 394.140625 174.753906 C 393.828125 173.746094 392.664062 173.589844 392.277344 174.441406 Z M 401.125 177.546875 C 402.832031 179.097656 402.910156 182.277344 401.277344 184.601562 C 398.871094 188.09375 394.757812 185.84375 394.757812 180.957031 C 394.757812 176.460938 397.941406 174.675781 401.125 177.546875 Z M 401.125 177.546875 " fill-opacity="1" fill-rule="nonzero"/><path fill="#000000" d="M 410.125 174.441406 C 407.410156 175.140625 408.574219 176.691406 411.523438 176.382812 C 413.386719 176.148438 414.550781 176.382812 415.015625 177.078125 C 416.101562 178.863281 415.867188 179.097656 412.609375 179.640625 C 408.652344 180.257812 406.476562 183.050781 407.796875 185.921875 C 408.496094 187.394531 409.273438 187.859375 411.289062 187.859375 C 412.6875 187.859375 414.238281 187.472656 414.78125 186.929688 C 415.480469 186.230469 415.714844 186.230469 415.714844 186.929688 C 415.714844 187.472656 416.257812 187.859375 416.878906 187.859375 C 417.808594 187.859375 418.042969 186.773438 418.042969 182.429688 C 418.042969 175.0625 415.945312 172.890625 410.125 174.441406 Z M 415.714844 182.277344 C 415.714844 184.449219 413.851562 186.542969 412.144531 186.152344 C 410.203125 185.84375 409.738281 183.207031 411.523438 181.886719 C 413.539062 180.414062 415.714844 180.648438 415.714844 182.277344 Z M 415.714844 182.277344 " fill-opacity="1" fill-rule="nonzero"/><path fill="#000000" d="M 421.691406 174.441406 C 421.535156 174.832031 421.535156 177.933594 421.765625 181.421875 C 422 186.230469 422.386719 187.859375 423.164062 187.859375 C 423.941406 187.859375 424.25 186.695312 424.25 183.285156 C 424.25 178.863281 425.414062 176.226562 427.433594 176.226562 C 427.820312 176.226562 428.132812 175.683594 428.132812 175.0625 C 428.132812 173.589844 427.355469 173.589844 425.183594 175.140625 C 423.628906 176.226562 423.472656 176.226562 423.472656 175.140625 C 423.472656 173.898438 422.234375 173.433594 421.691406 174.441406 Z M 421.691406 174.441406 " fill-opacity="1" fill-rule="nonzero"/><path fill="#000000" d="M 441.167969 174.441406 C 441.015625 174.832031 441.015625 177.933594 441.167969 181.421875 C 441.402344 186.230469 441.710938 187.859375 442.488281 187.859375 C 443.265625 187.859375 443.652344 186.464844 443.808594 182.742188 C 444.039062 177.3125 445.203125 175.449219 447.84375 176.460938 C 448.851562 176.847656 449.085938 178.085938 449.085938 182.429688 C 449.085938 187.316406 449.242188 187.859375 450.636719 187.859375 C 451.957031 187.859375 452.113281 187.238281 452.34375 182.742188 C 452.578125 177.3125 453.742188 175.449219 456.378906 176.460938 C 457.390625 176.847656 457.621094 178.085938 457.621094 182.429688 C 457.621094 187.316406 457.777344 187.859375 459.175781 187.859375 C 460.570312 187.859375 460.726562 187.316406 460.726562 183.671875 C 460.726562 178.320312 459.71875 175.683594 457.3125 174.519531 C 455.757812 173.820312 454.984375 173.898438 453.355469 174.984375 C 451.492188 176.226562 451.179688 176.226562 449.9375 175.140625 C 448.230469 173.589844 446.757812 173.589844 444.582031 175.140625 C 443.03125 176.226562 442.875 176.226562 442.875 175.140625 C 442.875 173.898438 441.636719 173.433594 441.167969 174.441406 Z M 441.167969 174.441406 " fill-opacity="1" fill-rule="nonzero"/><path fill="#000000" d="M 465.925781 175.449219 C 462.046875 178.554688 462.898438 186.464844 467.246094 187.550781 C 469.804688 188.171875 474.386719 187.628906 474.074219 186.695312 C 473.996094 186.308594 472.832031 186.078125 471.589844 186.152344 C 468.71875 186.464844 466.160156 185.066406 466.160156 183.207031 C 466.160156 181.8125 466.703125 181.65625 470.894531 181.65625 L 475.703125 181.65625 L 475.160156 179.097656 C 474.230469 174.289062 469.730469 172.503906 465.925781 175.449219 Z M 472.367188 177.777344 C 473.144531 179.25 472.988281 179.328125 469.652344 179.328125 C 466.082031 179.328125 465.460938 178.785156 467.089844 177.15625 C 468.566406 175.683594 471.4375 176.070312 472.367188 177.777344 Z M 472.367188 177.777344 " fill-opacity="1" fill-rule="nonzero"/><path fill="#000000" d="M 478.421875 174.441406 C 478.265625 174.832031 478.265625 177.933594 478.421875 181.421875 C 478.652344 186.386719 478.964844 187.859375 479.816406 187.859375 C 480.671875 187.859375 480.90625 186.695312 480.90625 182.972656 C 480.90625 177.777344 481.679688 176.226562 484.472656 176.226562 C 486.648438 176.226562 487.113281 177.546875 487.113281 183.285156 C 487.113281 187.316406 487.269531 187.859375 488.664062 187.859375 C 490.0625 187.859375 490.21875 187.316406 490.21875 183.671875 C 490.21875 178.320312 489.207031 175.683594 486.726562 174.519531 C 485.25 173.820312 484.320312 173.898438 482.6875 174.597656 C 481.214844 175.296875 480.4375 175.296875 480.285156 174.753906 C 479.972656 173.746094 478.808594 173.589844 478.421875 174.441406 Z M 478.421875 174.441406 " fill-opacity="1" fill-rule="nonzero"/><path fill="#000000" d="M 504.1875 175.296875 C 501.703125 177.3125 502.558594 180.183594 506.128906 181.886719 C 509 183.285156 509.230469 183.671875 508.144531 185.457031 C 507.679688 186.152344 506.671875 186.386719 505.039062 186.078125 C 503.253906 185.6875 502.632812 185.84375 502.632812 186.695312 C 502.632812 188.324219 508.378906 188.25 509.929688 186.621094 C 512.257812 184.292969 511.25 181.8125 506.980469 179.714844 C 504.496094 178.476562 504.964844 176.691406 507.910156 176.382812 C 510.550781 176.148438 511.171875 175.140625 509.152344 174.363281 C 507.136719 173.589844 505.972656 173.820312 504.1875 175.296875 Z M 504.1875 175.296875 " fill-opacity="1" fill-rule="nonzero"/></svg>